<svg width="45" height="45" viewBox="0 0 45 45" fill="none" xmlns="http://www.w3.org/2000/svg">
<path d="M43.1667 35.9933C43.1667 36.7133 43.0065 37.4533 42.666 38.1733C42.3255 38.8933 41.8848 39.5733 41.304 40.2133C40.3225 41.2933 39.2409 42.0733 38.019 42.5733C36.8172 43.0733 35.5153 43.3333 34.1132 43.3333C32.0701 43.3333 29.8868 42.8533 27.5834 41.8733C25.2799 40.8933 22.9765 39.5733 20.693 37.9133C18.3896 36.2333 16.2063 34.3733 14.1232 32.3133C12.0601 30.2333 10.1973 28.0533 8.5348 25.7733C6.89234 23.4933 5.57035 21.2133 4.60891 18.9533C3.64747 16.6733 3.16675 14.4933 3.16675 12.4133C3.16675 11.0533 3.40711 9.75325 3.88783 8.55325C4.36855 7.33325 5.12969 6.21325 6.19128 5.21325C7.47321 3.95325 8.87531 3.33325 10.3575 3.33325C10.9184 3.33325 11.4792 3.45325 11.98 3.69325C12.5007 3.93325 12.9614 4.29325 13.322 4.81325L17.969 11.3533C18.3295 11.8533 18.5899 12.3133 18.7702 12.7533C18.9504 13.1733 19.0506 13.5933 19.0506 13.9733C19.0506 14.4533 18.9104 14.9333 18.6299 15.3933C18.3696 15.8533 17.989 16.3333 17.5083 16.8133L15.986 18.3933C15.7656 18.6133 15.6655 18.8733 15.6655 19.1933C15.6655 19.3533 15.6855 19.4933 15.7256 19.6533C15.7857 19.8133 15.8458 19.9333 15.8858 20.0533C16.2464 20.7133 16.8673 21.5733 17.7486 22.6133C18.65 23.6533 19.6114 24.7133 20.653 25.7733C21.7346 26.8333 22.7762 27.8133 23.8378 28.7133C24.8793 29.5933 25.7406 30.1933 26.4216 30.5533C26.5218 30.5933 26.642 30.6533 26.7822 30.7133C26.9424 30.7733 27.1027 30.7933 27.2829 30.7933C27.6234 30.7933 27.8838 30.6733 28.1042 30.4533L29.6264 28.9533C30.1272 28.4533 30.6079 28.0733 31.0686 27.8333C31.5293 27.5533 31.99 27.4133 32.4907 27.4133C32.8713 27.4133 33.2719 27.4933 33.7126 27.6733C34.1532 27.8533 34.6139 28.1133 35.1147 28.4533L41.7446 33.1533C42.2654 33.5133 42.6259 33.9333 42.8463 34.4333C43.0466 34.9333 43.1667 35.4333 43.1667 35.9933Z" stroke="#212121" stroke-width="3" stroke-miterlimit="10"/>
</svg>
