<svg width="68" height="73" viewBox="0 0 68 73" fill="none" xmlns="http://www.w3.org/2000/svg">
<path d="M17.1911 21.3877C17.1106 21.284 17.0104 21.1971 16.8963 21.132C16.7823 21.067 16.6565 21.025 16.5262 21.0086C16.3959 20.9922 16.2636 21.0016 16.137 21.0363C16.0103 21.071 15.8917 21.1303 15.788 21.2108L13.9487 18.8408C12.9731 17.5837 11.538 16.7656 9.9592 16.5665C8.3804 16.3675 6.78719 16.8037 5.53005 17.7794C4.27291 18.755 3.45483 20.19 3.25577 21.7688C3.0567 23.3476 3.49297 24.9409 4.46859 26.198L6.30789 28.568C6.09837 28.7306 5.96202 28.9698 5.92884 29.2329C5.89566 29.4961 5.96838 29.7616 6.13098 29.9711C6.29358 30.1806 6.53276 30.317 6.79589 30.3502C7.05903 30.3833 7.32456 30.3106 7.53408 30.148L9.98648 33.3081C9.77695 33.4707 9.64061 33.7098 9.60743 33.973C9.57425 34.2361 9.64696 34.5016 9.80957 34.7112C9.97217 34.9207 10.2113 35.057 10.4745 35.0902C10.7376 35.1234 11.0031 35.0507 11.2127 34.8881L32.6711 62.5383C32.7648 62.6451 32.8743 62.7369 32.9959 62.8103L43.69 68.4349C43.8599 68.5242 44.052 68.5628 44.2432 68.5459C44.4344 68.529 44.6167 68.4575 44.7683 68.3398C44.92 68.2221 45.0345 68.0633 45.0983 67.8822C45.1621 67.7012 45.1725 67.5056 45.1281 67.3189L42.3341 55.5633C42.2926 55.4275 42.2309 55.2986 42.1512 55.1811L20.6928 27.5309C20.9023 27.3683 21.0386 27.1291 21.0718 26.866C21.105 26.6028 21.0323 26.3373 20.8697 26.1278C20.7071 25.9183 20.4679 25.7819 20.2048 25.7487C19.9416 25.7156 19.6761 25.7883 19.4666 25.9509L17.0142 22.7908C17.1179 22.7104 17.2048 22.6102 17.2699 22.4961C17.335 22.382 17.3769 22.2562 17.3933 22.1259C17.4098 21.9956 17.4003 21.8634 17.3656 21.7367C17.3309 21.6101 17.2716 21.4915 17.1911 21.3877ZM42.6734 65.6403L40.4817 64.4876C40.4619 64.284 40.494 64.0786 40.575 63.8907C40.6559 63.7028 40.7832 63.5385 40.9448 63.4131C41.1065 63.2876 41.2972 63.2051 41.4994 63.1733C41.7015 63.1415 41.9084 63.1614 42.1007 63.2312L42.6734 65.6403ZM41.6083 61.1594C40.9227 61.1765 40.2605 61.4125 39.7186 61.833C39.1768 62.2535 38.7837 62.8364 38.597 63.4964L35.3013 61.7629L40.7472 57.5365L41.6083 61.1594ZM39.9581 55.6173L33.638 60.5221L12.7927 33.6619L19.1127 28.7571L39.9581 55.6173ZM17.8865 27.1771L11.5665 32.0819L9.1141 28.9218L15.4342 24.017L17.8865 27.1771ZM14.208 22.437L7.8879 27.3418L6.04861 24.9718C5.39819 24.1337 5.10735 23.0716 5.24006 22.019C5.37276 20.9665 5.91815 20.0098 6.75624 19.3594C7.59434 18.709 8.65648 18.4181 9.70901 18.5508C10.7615 18.6835 11.7182 19.2289 12.3687 20.067L14.208 22.437Z" fill="white"/>
<path d="M56.2852 36.0512L54.4817 35.1862L33.7813 8.51268C33.1302 7.67556 32.1736 7.13091 31.1214 6.99825C30.0692 6.86558 29.0073 7.15574 28.1688 7.80505L26.5888 9.03124L25.9757 8.24124C25.1627 7.19362 23.9668 6.51189 22.6512 6.346C21.3355 6.18012 20.0078 6.54367 18.9602 7.35669C17.9126 8.16971 17.2308 9.36559 17.065 10.6813C16.8991 11.9969 17.2626 13.3246 18.0757 14.3722L18.6887 15.1622C18.585 15.2427 18.4981 15.3429 18.433 15.457C18.368 15.571 18.326 15.6968 18.3096 15.8271C18.2932 15.9574 18.3026 16.0897 18.3373 16.2163C18.372 16.343 18.4313 16.4616 18.5118 16.5653L46.1012 52.1156C46.1052 52.1207 46.1112 52.1227 46.1152 52.1277C46.1858 52.2128 46.2701 52.2854 46.3646 52.3427C46.3901 52.3587 46.4141 52.3742 46.4408 52.3878C46.4608 52.398 46.4775 52.4129 46.4983 52.4218L55.7277 56.3645L56.7954 57.7402C56.958 57.9497 57.1971 58.0861 57.4603 58.1193C57.7234 58.1525 57.9889 58.0797 58.1985 57.9171C58.408 57.7545 58.5443 57.5154 58.5775 57.2522C58.6107 56.9891 58.538 56.7236 58.3754 56.514L57.3077 55.1383L55.7794 45.2191C55.7759 45.1967 55.7655 45.1769 55.7607 45.1549C55.7542 45.1258 55.7451 45.0987 55.7359 45.07C55.7039 44.9642 55.6544 44.8645 55.5895 44.775C55.5857 44.7699 55.5853 44.7635 55.5813 44.7585L28.605 9.99816L29.395 9.38506C29.8143 9.06045 30.3452 8.91539 30.8713 8.98172C31.3974 9.04806 31.8757 9.32035 32.2012 9.73888L53.0466 36.5991C53.1417 36.7218 53.2641 36.8206 53.4041 36.8878L55.4203 37.8547C55.6594 37.9687 55.9339 37.9831 56.1836 37.895C56.4333 37.8068 56.6379 37.6232 56.7524 37.3844C56.8669 37.1456 56.8821 36.8711 56.7945 36.6212C56.7069 36.3712 56.5238 36.1662 56.2852 36.0512ZM19.6557 13.146C19.1679 12.5175 18.9497 11.7208 19.0493 10.9314C19.1488 10.142 19.5578 9.42452 20.1864 8.9367C20.815 8.44889 21.6116 8.23076 22.401 8.33029C23.1904 8.42982 23.9079 8.83886 24.3957 9.46743L25.0088 10.2574L20.2688 13.936L19.6557 13.146ZM55.0964 53.92L48.8471 51.2505L54.0616 47.2037L55.0964 53.92ZM53.3882 45.1947L47.0682 50.0994L44.6158 46.9394L50.9358 42.0346L53.3882 45.1947ZM49.7096 40.4546L43.3896 45.3594L36.0324 35.8793L42.3525 30.9745L49.7096 40.4546ZM41.1263 29.3945L34.8062 34.2993L20.705 16.1291L27.025 11.2244L41.1263 29.3945Z" fill="white"/>
<path d="M30.609 22.3668C30.7128 22.2863 30.7997 22.1862 30.8648 22.0721C30.9298 21.958 30.9718 21.8322 30.9882 21.7019C31.0046 21.5716 30.9952 21.4394 30.9605 21.3127C30.9258 21.1861 30.8665 21.0675 30.7859 20.9637L26.4943 15.4337C26.3317 15.2242 26.0925 15.0878 25.8293 15.0546C25.5662 15.0215 25.3007 15.0942 25.0912 15.2568C24.8816 15.4194 24.7453 15.6586 24.7121 15.9217C24.6789 16.1848 24.7516 16.4504 24.9142 16.6599L29.2059 22.1899C29.2864 22.2937 29.3866 22.3806 29.5007 22.4457C29.6147 22.5107 29.7405 22.5527 29.8708 22.5691C30.0011 22.5855 30.1334 22.5761 30.2601 22.5414C30.3867 22.5067 30.5053 22.4474 30.609 22.3668Z" fill="white"/>
<path d="M33.6745 26.3169C34.1108 25.9783 34.19 25.3501 33.8514 24.9138C33.5128 24.4775 32.8846 24.3983 32.4483 24.7369C32.012 25.0755 31.9328 25.7037 32.2714 26.14C32.61 26.5763 33.2382 26.6555 33.6745 26.3169Z" fill="white"/>
</svg>
