<svg width="110" height="112" viewBox="0 0 110 112" fill="none" xmlns="http://www.w3.org/2000/svg">
<path d="M88.789 66.7238C88.6154 66.7535 88.4495 66.8175 88.3009 66.912C88.1523 67.0066 88.0239 67.1298 87.923 67.2748C87.8222 67.4197 87.7508 67.5835 87.713 67.7568C87.6752 67.93 87.6718 68.1093 87.7028 68.2845C87.7339 68.4596 87.7989 68.6271 87.8941 68.7774C87.9893 68.9276 88.1128 69.0577 88.2576 69.1603C88.4024 69.2628 88.5656 69.3357 88.7379 69.3748C88.9102 69.4139 89.0882 69.4184 89.2618 69.3882C98.4705 67.7927 102.452 68.9457 103.063 70.417C104.474 73.81 92.7944 84.2162 70.568 93.455C48.3423 102.694 32.727 103.633 31.3167 100.24C30.9472 99.351 31.6033 97.8039 33.1167 95.9949C33.2307 95.8599 33.317 95.7034 33.3706 95.5342C33.4242 95.3651 33.444 95.1867 33.4289 95.0093C33.4139 94.8319 33.3642 94.6589 33.2827 94.5004C33.2012 94.3419 33.0896 94.201 32.9543 94.0856C32.8189 93.9703 32.6625 93.8828 32.494 93.8283C32.3254 93.7738 32.1481 93.7533 31.9722 93.7679C31.7963 93.7826 31.6253 93.8321 31.4689 93.9137C31.3126 93.9953 31.174 94.1073 31.0612 94.2433C28.7822 96.9647 28.0362 99.3281 28.8426 101.268C31.7425 108.245 52.5509 103.877 71.6074 95.9555C90.6639 88.0343 108.437 76.365 105.538 69.3886C103.753 65.0957 95.444 65.5698 88.789 66.7238Z" fill="white"/>
<path d="M57.818 76.8596C57.658 76.9325 57.514 77.0366 57.3943 77.1659C57.2746 77.2951 57.1816 77.4471 57.1204 77.613C57.0593 77.779 57.0313 77.9557 57.038 78.1331C57.0448 78.3104 57.0861 78.485 57.1597 78.6468C57.2292 78.8121 57.3315 78.9615 57.4601 79.086C57.5888 79.2105 57.7411 79.3074 57.9078 79.3707C58.0745 79.4341 58.252 79.4625 58.4294 79.4543C58.6069 79.4461 58.7805 79.4014 58.9397 79.323C62.5178 77.694 66.3334 76.1237 69.9985 74.7806C70.0171 74.7744 70.034 74.7673 70.0522 74.7598C70.3746 74.6244 70.6308 74.3669 70.7659 74.0424C70.9011 73.7179 70.9045 73.352 70.7755 73.0229C70.6465 72.6939 70.3953 72.4277 70.0755 72.2813C69.7557 72.1349 69.3927 72.1199 69.0641 72.2395C65.338 73.6063 61.4574 75.1993 57.818 76.8596Z" fill="white"/>
<path d="M47.7018 38.4442C48.6804 38.0374 49.5152 37.3465 50.1005 36.4587C50.6858 35.571 50.9953 34.5263 50.99 33.4569C50.9846 32.3874 50.6647 31.3411 50.0705 30.4504C49.4763 29.5596 48.6347 28.8644 47.652 28.4527C46.6692 28.0409 45.5896 27.9311 44.5496 28.1371C43.5095 28.3431 42.5558 28.8557 41.809 29.61C41.0622 30.3644 40.5559 31.3266 40.354 32.375C40.1522 33.4234 40.2639 34.5109 40.675 35.5C41.2275 36.8254 42.2776 37.8798 43.595 38.4318C44.9124 38.9837 46.3894 38.9882 47.7018 38.4442ZM44.5837 30.9428C45.073 30.7394 45.6123 30.6872 46.1333 30.7928C46.6544 30.8985 47.1338 31.1572 47.511 31.5363C47.8882 31.9153 48.1462 32.3977 48.2523 32.9225C48.3585 33.4472 48.3081 33.9907 48.1074 34.4842C47.9068 34.9777 47.5649 35.3991 47.1251 35.6951C46.6853 35.991 46.1673 36.1483 45.6365 36.1469C45.1058 36.1456 44.5862 35.9857 44.1434 35.6875C43.7007 35.3893 43.3546 34.9662 43.149 34.4716C42.8743 33.8084 42.8711 33.0644 43.14 32.4029C43.409 31.7413 43.9281 31.2163 44.5837 30.9428Z" fill="white"/>
<path d="M33.039 88.9708L39.629 97.6639C39.7732 97.8538 39.9643 98.0024 40.1831 98.0945C40.4019 98.1866 40.6406 98.219 40.8749 98.1884C40.9911 98.1737 41.1048 98.1433 41.2128 98.0981C41.3761 98.03 41.5242 97.93 41.6486 97.8038C41.773 97.6777 41.8713 97.5278 41.9378 97.3628L45.7124 87.9574C48.0072 87.4621 50.0264 86.1133 51.3685 84.1792C52.7106 82.2451 53.2772 79.8675 52.9557 77.519L51.2307 64.8011C51.2847 64.7942 51.3382 64.7837 51.3908 64.7698L56.3388 62.7131L57.3782 65.2135C57.516 65.5451 57.7786 65.809 58.108 65.947C58.4375 66.085 58.8068 66.086 59.1349 65.9496C59.463 65.8132 59.7229 65.5507 59.8574 65.2198C59.9919 64.8889 59.9901 64.5168 59.8522 64.1852L58.8129 61.6847L63.7609 59.6279C63.8079 59.6004 63.853 59.5699 63.896 59.5365L71.695 69.7311C73.068 71.554 75.0498 72.8151 77.2691 73.2782C79.4884 73.7412 81.793 73.3745 83.7514 72.2468L87.9215 77.6976C88.0294 77.8387 88.1637 77.9572 88.3168 78.0463C88.4698 78.1355 88.6385 78.1935 88.8133 78.2171C88.9881 78.2407 89.1655 78.2294 89.3355 78.1839C89.5054 78.1384 89.6645 78.0596 89.8038 77.9519C89.943 77.8441 90.0596 77.7097 90.1469 77.5562C90.2343 77.4027 90.2906 77.2331 90.3127 77.0572C90.3348 76.8813 90.3223 76.7024 90.2758 76.5308C90.2294 76.3593 90.1499 76.1983 90.042 76.0572L84.0276 68.1956L76.8909 58.8611C78.0139 57.9904 78.7447 56.7036 78.9226 55.2833C79.1005 53.863 78.711 52.4254 77.8396 51.2862C76.9683 50.1471 75.6864 49.3996 74.2756 49.208C72.8647 49.0163 71.4403 49.3962 70.3152 50.2642L57.6886 33.7553C57.752 30.6256 56.611 27.5834 54.5045 25.2657C52.3979 22.948 49.4892 21.5346 46.3874 21.3214L45.3742 18.8841C44.8229 17.5577 43.7729 16.5024 42.4551 15.9502C41.1373 15.3981 39.6597 15.3943 38.3474 15.9398C37.0351 16.4853 35.9956 17.5353 35.4575 18.8589C34.9194 20.1825 34.9268 21.6712 35.4781 22.9976L36.4913 25.4351C34.4546 27.7841 33.4048 30.8429 33.5618 33.9709C33.7188 37.0989 35.0705 40.0535 37.3338 42.2159L39.4063 57.4756C38.3207 56.8519 37.0861 56.5448 35.8416 56.5888C34.5971 56.6328 33.3921 57.0262 32.3625 57.7247C31.3328 58.4232 30.5194 59.3989 30.0138 60.5421C29.5083 61.6852 29.3307 62.9503 29.5011 64.1948L30.0465 68.2165L31.1373 76.2599L31.1372 76.2614L31.1377 76.263L32.7739 88.3278C32.7988 88.4858 32.8514 88.6382 32.929 88.7781C32.9381 88.7954 33.0299 88.9587 33.039 88.9708ZM33.9777 77.2559L41.9516 76.2174L43.2262 85.6026L35.2505 86.6412L33.9777 77.2559ZM32.8867 69.2109L40.8591 68.1728L41.5875 73.5362L33.6141 74.5746L32.8867 69.2109ZM40.3262 94.1451L36.5755 89.1971L42.6285 88.4089L40.3262 94.1451ZM57.7735 59.1842L56.7341 56.6837C56.5963 56.3521 56.3338 56.0883 56.0043 55.9502C55.6749 55.8122 55.3055 55.8113 54.9774 55.9476C54.6493 56.084 54.3895 56.3465 54.2549 56.6774C54.1204 57.0083 54.1223 57.3805 54.2601 57.7121L55.2995 60.2126L50.8587 62.0585L48.5785 45.2473C49.7576 44.9757 50.8821 44.5082 51.9063 43.8639L62.2144 57.3383L57.7735 59.1842ZM72.5589 52.0647C73.1871 51.8032 73.8924 51.793 74.5316 52.0362C75.1708 52.2795 75.6961 52.7579 76.0009 53.3744C76.3057 53.9909 76.3672 54.6994 76.1729 55.3562C75.9786 56.0129 75.5431 56.5687 74.9547 56.9108C74.3663 57.253 73.669 57.3558 73.0044 57.1984C72.3398 57.0411 71.7576 56.6353 71.3758 56.0635C70.9941 55.4917 70.8414 54.7967 70.9488 54.1193C71.0562 53.442 71.4156 52.8332 71.9541 52.4163C72.1394 52.2729 72.3427 52.1547 72.5589 52.0647ZM68.6499 52.4997C68.2897 53.3712 68.1654 54.325 68.2898 55.2641C68.4141 56.2033 68.7827 57.0945 69.3579 57.8473C69.9332 58.6 70.6948 59.1875 71.5653 59.5501C72.4359 59.9127 73.3844 60.0376 74.3146 59.9119L81.5586 69.3806L82.0865 70.0711C80.6992 70.7489 79.1187 70.9219 77.6118 70.5609C76.1049 70.1999 74.7638 69.327 73.815 68.0896L54.029 42.2264C55.4159 40.8745 56.4581 39.2046 57.0682 37.3569L68.6499 52.4997ZM37.9522 21.9692C37.6765 21.306 37.6728 20.5617 37.9418 19.8999C38.2109 19.2381 38.7307 18.7131 39.3868 18.4403C40.043 18.1676 40.7817 18.1695 41.4406 18.4455C42.0995 18.7216 42.6246 19.2493 42.9002 19.9124L43.5403 21.4524C41.7525 21.7425 40.0589 22.4465 38.5923 23.5092L37.9522 21.9692ZM41.9852 24.6915C43.6979 23.9797 45.5854 23.7971 47.4091 24.1668C49.2328 24.5365 50.9108 25.442 52.2309 26.7688C53.551 28.0955 54.4539 29.7839 54.8255 31.6205C55.197 33.457 55.0205 35.3592 54.3183 37.0865C53.616 38.8139 52.4196 40.2887 50.8803 41.3246C49.3409 42.3605 47.5278 42.9109 45.6703 42.9062C43.8127 42.9015 41.994 42.3419 40.4443 41.2982C38.8946 40.2544 37.6834 38.7735 36.964 37.0426C36.0023 34.7212 35.9909 32.1172 36.9322 29.8018C37.8735 27.4864 39.6907 25.6486 41.9852 24.6915ZM45.9205 45.5969L50.2967 77.8639C50.4183 78.7446 50.3654 79.6396 50.1412 80.4969C49.9169 81.3543 49.5258 82.157 48.9904 82.8587C48.1997 83.9133 47.112 84.7031 45.8673 85.1263L44.4305 74.5323L44.4306 74.5303L44.43 74.5288L42.7938 62.4639C42.7916 62.4475 42.785 62.4326 42.7826 62.4162L40.3246 44.3166C42.0648 45.1875 43.9838 45.6265 45.9205 45.5969ZM32.1595 63.8487C32.0127 62.7854 32.2897 61.71 32.9298 60.858C33.57 60.0061 34.5211 59.447 35.5748 59.3033C36.6285 59.1596 37.699 59.443 38.5517 60.0913C39.4044 60.7397 39.9699 61.7001 40.1243 62.7624L40.4949 65.4917L32.5231 66.5298L32.1595 63.8487Z" fill="white"/>
</svg>
