<svg width="84" height="84" viewBox="0 0 84 84" fill="none" xmlns="http://www.w3.org/2000/svg">
<path d="M71.1096 52.1433L70.2617 49.9047C70.8801 49.6235 71.4159 49.1881 71.8174 48.6401C72.219 48.0922 72.473 47.4502 72.5549 46.7758C72.6368 46.1014 72.5439 45.4173 72.2851 44.7892C72.0264 44.161 71.6105 43.61 71.0774 43.1889L74.0107 36.6771C74.0836 36.5022 74.1076 36.3107 74.0803 36.1231C74.0529 35.9355 73.9751 35.7589 73.8553 35.6121L53.6651 12.2592C53.5697 12.1496 53.4517 12.0619 53.3192 12.0022C53.1867 11.9425 53.0429 11.9122 52.8976 11.9135L22.0289 12.2665C21.8382 12.2686 21.6521 12.3253 21.4926 12.4297C21.333 12.5341 21.2066 12.682 21.1283 12.8558C21.05 13.0297 21.023 13.2223 21.0505 13.411C21.078 13.5997 21.1589 13.7766 21.2837 13.9208L30.2401 24.2803L25.1777 35.5186C25.0995 35.6921 25.0724 35.8844 25.0997 36.0727C25.127 36.2611 25.2075 36.4377 25.3317 36.5819L36.1332 49.125C36.2286 49.2357 36.347 49.3241 36.4803 49.3841C36.6135 49.4441 36.7582 49.4742 36.9043 49.4723L53.4558 49.2506C53.6461 49.2481 53.8317 49.1914 53.9909 49.087C54.15 48.9826 54.2761 48.8349 54.3542 48.6614L59.4166 37.423L71.5436 37.2844L69.2538 42.3675C68.5852 42.2472 67.8969 42.3009 67.2551 42.5233C66.6132 42.7457 66.0393 43.1295 65.5885 43.6377C65.1377 44.1459 64.8251 44.7615 64.6808 45.4253C64.5365 46.0891 64.5654 46.7789 64.7646 47.4284L62.5262 48.2768C62.4034 48.3233 62.2909 48.3935 62.1953 48.4835C62.0996 48.5734 62.0226 48.6814 61.9687 48.8011L57.8616 57.9187C57.8076 58.0385 57.7777 58.1677 57.7737 58.2989C57.7697 58.4302 57.7916 58.561 57.8381 58.6838C57.8846 58.8066 57.9549 58.919 58.0449 59.0147C58.1349 59.1103 58.2429 59.1873 58.3626 59.2412L65.6567 62.5269C65.7765 62.5809 65.9057 62.6107 66.0369 62.6148C66.1682 62.6188 66.299 62.5969 66.4218 62.5504C66.5446 62.5039 66.657 62.4336 66.7527 62.3436C66.8483 62.2536 66.9253 62.1456 66.9792 62.0259L71.0863 52.9082C71.1403 52.7885 71.1701 52.6593 71.1741 52.528C71.1781 52.3968 71.1561 52.266 71.1096 52.1433ZM52.4559 13.9188L69.3808 33.4948L47.9802 23.8547C47.7384 23.7458 47.4632 23.7374 47.2152 23.8313C46.9672 23.9253 46.7666 24.1139 46.6577 24.3558C46.5488 24.5976 46.5404 24.8728 46.6343 25.1208C46.7283 25.3688 46.9169 25.5693 47.1588 25.6782L68.5594 35.3183L42.683 35.6142L24.205 14.2418L52.4559 13.9188ZM37.3442 47.4662L27.2627 35.7595L28.8206 32.3012L38.5975 43.6544C38.6928 43.7651 38.8113 43.8536 38.9445 43.9136C39.0777 43.9736 39.2225 44.0037 39.3686 44.0018L54.35 43.8011L52.7922 47.2594L37.3442 47.4662ZM55.2565 41.7887L39.8085 41.9956L29.7271 30.2887L31.6823 25.9483L41.4738 37.2737C41.569 37.3836 41.687 37.4715 41.8195 37.5312C41.9521 37.5909 42.096 37.621 42.2414 37.6195L57.2117 37.4483L55.2565 41.7887ZM69.4025 44.4723C69.7632 44.6348 70.0675 44.9005 70.2772 45.236C70.4868 45.5714 70.5922 45.9615 70.5801 46.3569C70.5681 46.7523 70.439 47.1352 70.2093 47.4572C69.9796 47.7793 69.6596 48.0259 69.2897 48.1661C68.9198 48.3062 68.5166 48.3335 68.1312 48.2446C67.7458 48.1556 67.3954 47.9543 67.1243 47.6662C66.8533 47.3781 66.6738 47.0161 66.6085 46.6259C66.5432 46.2358 66.5951 45.8351 66.7575 45.4744C66.9759 44.9912 67.377 44.6143 67.8728 44.4264C68.3687 44.2386 68.9188 44.2551 69.4025 44.4723ZM65.5664 60.2927L60.0958 57.8284L63.6222 50L65.8191 49.1674C66.4696 49.8223 67.3391 50.2139 68.2606 50.2672L69.0927 52.4643L65.5664 60.2927Z" fill="white"/>
<path d="M54.3049 58.5101C54.2616 58.4905 54.2169 58.4739 54.1713 58.4607L53.6954 58.3234L53.6921 58.3232L53.6892 58.3217L40.4753 54.6058C40.4637 54.2332 40.3481 53.8713 40.1414 53.5611C39.9347 53.2508 39.6453 53.0047 39.3059 52.8505L32.0118 49.5648C31.6714 49.4128 31.2953 49.3591 30.926 49.4099C30.5567 49.4607 30.209 49.6139 29.9223 49.8522L18.3779 42.4144L17.9598 42.1489C17.9196 42.1235 17.8776 42.101 17.8342 42.0816C15.2352 40.9109 11.5098 43.9476 9.1683 49.1457C6.82676 54.3439 7.02094 59.1462 9.62 60.3169C9.66328 60.3366 9.70792 60.3531 9.75357 60.3664L23.2425 64.1627L21.974 66.9787C21.9069 67.1277 21.8773 67.2909 21.8879 67.454C21.8985 67.6171 21.9488 67.7751 22.0346 67.9142C22.1203 68.0534 22.2389 68.1694 22.3798 68.2521C22.5208 68.3348 22.6798 68.3817 22.8431 68.3888L27.8236 68.6015L31.2832 72.1907C31.3967 72.3083 31.5372 72.3963 31.6926 72.4471C31.8479 72.4978 32.0133 72.5098 32.1744 72.4818C32.3354 72.4538 32.4871 72.3868 32.6163 72.2867C32.7454 72.1865 32.848 72.0562 32.9152 71.9072L34.1835 69.0915L45.5416 76.4093L45.5456 76.4114L45.547 76.4128C45.6463 76.4758 45.9856 76.6981 46.0906 76.7454C48.6897 77.9162 52.415 74.8795 54.7566 69.6813C57.0981 64.4832 56.9039 59.6809 54.3049 58.5101ZM10.7837 58.5812L10.391 58.4686C9.31614 57.8826 9.01648 54.3524 10.9918 49.9672C12.9672 45.582 15.8097 43.4671 16.9608 43.8839L28.9103 51.5803L24.0733 62.3183L10.7837 58.5812ZM31.6981 69.7395L28.9862 66.9253C28.8077 66.7406 28.5652 66.6314 28.3087 66.62L24.404 66.4538L31.1904 51.3883L38.4845 54.674L31.6981 69.7395ZM35.0144 67.2469L39.8516 56.5087L50.1763 59.4116C48.1847 61.0657 46.6271 63.1812 45.6389 65.5742C44.5015 67.9 43.9492 70.4683 44.0301 73.056L35.0144 67.2469ZM46.2301 74.0009C45.779 72.6632 45.9843 70.1328 47.0782 67.3193L47.9635 67.7181C48.2051 67.8272 48.3936 68.0278 48.4875 68.2757C48.5815 68.5237 48.5732 68.7987 48.4645 69.0406L46.2301 74.0009ZM48.0633 74.801L50.2881 69.862C50.614 69.1365 50.6387 68.3113 50.3569 67.5675C50.0751 66.8237 49.5098 66.222 48.7849 65.8946L47.8996 65.4958C49.6331 62.1303 51.9597 60.1086 53.2295 60.2712L53.5338 60.3585C54.6087 60.9444 54.9084 64.4747 52.933 68.8599C51.4362 72.1829 49.4428 74.1991 48.0633 74.801Z" fill="white"/>
</svg>
