<svg width="121" height="121" viewBox="0 0 121 121" fill="none" xmlns="http://www.w3.org/2000/svg">
<path d="M47.9018 4.32948C47.6883 4.49811 47.5298 4.7263 47.4462 4.98515C47.3626 5.24399 47.3578 5.52183 47.4323 5.78343L78.238 114.278C78.3122 114.54 78.4624 114.774 78.6695 114.95C78.8766 115.126 79.1313 115.237 79.4014 115.269C79.6715 115.3 79.9448 115.251 80.1869 115.127C80.429 115.003 80.6289 114.81 80.7614 114.573L119.606 44.9218C119.694 44.7641 119.75 44.5906 119.771 44.4113C119.792 44.2319 119.777 44.0501 119.728 43.8764C119.679 43.7027 119.596 43.5404 119.484 43.3988C119.371 43.2572 119.233 43.1391 119.075 43.0512L49.4245 4.20703C49.1871 4.0744 48.9156 4.01523 48.6446 4.03703C48.3735 4.05882 48.115 4.16061 47.9018 4.32948ZM116.534 44.7832L79.9764 110.334L77.5406 101.756L79.9593 101.069C80.134 101.02 80.2974 100.938 80.4401 100.826C80.5828 100.714 80.702 100.575 80.7907 100.417C80.8795 100.259 80.9362 100.085 80.9575 99.9053C80.9787 99.7253 80.9642 99.5428 80.9147 99.3684C80.8652 99.1941 80.7816 99.0312 80.6689 98.8892C80.5562 98.7472 80.4166 98.6289 80.258 98.5412C80.0994 98.4534 79.925 98.3978 79.7448 98.3777C79.5647 98.3575 79.3823 98.3732 79.2082 98.4238L76.7896 99.1105L74.885 92.4027L79.1743 91.1848C79.349 91.1363 79.5123 91.0538 79.655 90.942C79.7977 90.8302 79.9169 90.6913 80.0057 90.5333C80.0945 90.3752 80.1511 90.2012 80.1724 90.0211C80.1937 89.8411 80.1791 89.6587 80.1296 89.4843C80.0801 89.3099 79.9966 89.147 79.8839 89.0051C79.7712 88.8631 79.6315 88.7448 79.4729 88.657C79.3143 88.5692 79.1399 88.5136 78.9598 88.4935C78.7796 88.4734 78.5972 88.4891 78.4232 88.5397L74.1339 89.7575L72.2293 83.0497L74.648 82.3629C74.8227 82.3145 74.9861 82.232 75.1288 82.1202C75.2715 82.0084 75.3906 81.8694 75.4794 81.7114C75.5682 81.5533 75.6249 81.3793 75.6461 81.1993C75.6674 81.0193 75.6529 80.8368 75.6033 80.6624C75.5538 80.488 75.4703 80.3252 75.3576 80.1832C75.2449 80.0412 75.1052 79.9229 74.9466 79.8351C74.788 79.7473 74.6136 79.6918 74.4335 79.6716C74.2533 79.6515 74.071 79.6672 73.8969 79.7178L71.4783 80.4045L69.5737 73.6966L73.8629 72.4787C74.0376 72.4303 74.201 72.3478 74.3437 72.236C74.4864 72.1242 74.6056 71.9853 74.6944 71.8272C74.7831 71.6692 74.8398 71.4951 74.8611 71.3151C74.8823 71.1351 74.8678 70.9526 74.8183 70.7783C74.7688 70.6039 74.6852 70.441 74.5725 70.299C74.4598 70.157 74.3202 70.0388 74.1616 69.951C74.003 69.8632 73.8286 69.8076 73.6484 69.7875C73.4683 69.7673 73.2859 69.783 73.1119 69.8336L68.8226 71.0515L66.918 64.3436L69.3367 63.6569C69.6854 63.5555 69.9798 63.3202 70.1557 63.0025C70.3315 62.6848 70.3746 62.3104 70.2754 61.9611C70.1762 61.6118 69.9428 61.3159 69.6262 61.138C69.3096 60.9602 68.9355 60.9148 68.5856 61.0118L66.1669 61.6985L64.2623 54.9906L68.5516 53.7727C68.9003 53.6713 69.1947 53.4361 69.3706 53.1184C69.5465 52.8007 69.5895 52.4263 69.4903 52.0769C69.3911 51.7276 69.1578 51.4317 68.8412 51.2539C68.5246 51.076 68.1505 51.0306 67.8005 51.1276L63.5113 52.3455L61.6067 45.6376L64.0254 44.9508C64.2 44.9024 64.3634 44.8199 64.5061 44.7081C64.6488 44.5963 64.768 44.4574 64.8568 44.2993C64.9456 44.1413 65.0022 43.9672 65.0235 43.7872C65.0448 43.6072 65.0302 43.4247 64.9807 43.2504C64.9312 43.076 64.8477 42.9131 64.735 42.7711C64.6223 42.6291 64.4826 42.5109 64.324 42.4231C64.1654 42.3353 63.991 42.2797 63.8108 42.2596C63.6307 42.2394 63.4483 42.2551 63.2743 42.3057L60.8556 42.9925L58.951 36.2846L63.2403 35.0667C63.415 35.0182 63.5784 34.9357 63.7211 34.8239C63.8637 34.7121 63.9829 34.5732 64.0717 34.4152C64.1605 34.2571 64.2172 34.0831 64.2384 33.9031C64.2597 33.723 64.2451 33.5406 64.1956 33.3662C64.1461 33.1918 64.0626 33.0289 63.9499 32.887C63.8372 32.745 63.6975 32.6267 63.5389 32.5389C63.3803 32.4511 63.2059 32.3955 63.0258 32.3754C62.8456 32.3553 62.6633 32.371 62.4892 32.4216L58.2 33.6394L56.2954 26.9316L58.714 26.2448C58.8887 26.1964 59.0521 26.1139 59.1948 26.0021C59.3375 25.8903 59.4567 25.7513 59.5454 25.5933C59.6342 25.4353 59.6909 25.2612 59.7122 25.0812C59.7334 24.9012 59.7189 24.7187 59.6694 24.5443C59.6199 24.3699 59.5363 24.2071 59.4236 24.0651C59.3109 23.9231 59.1713 23.8048 59.0127 23.717C58.8541 23.6292 58.6797 23.5737 58.4995 23.5535C58.3194 23.5334 58.137 23.5491 57.9629 23.5997L55.5443 24.2864L53.6397 17.5786L57.929 16.3606C58.1037 16.3122 58.2671 16.2297 58.4097 16.1179C58.5524 16.0061 58.6716 15.8672 58.7604 15.7091C58.8492 15.5511 58.9058 15.377 58.9271 15.197C58.9484 15.017 58.9338 14.8345 58.8843 14.6602C58.8348 14.4858 58.7513 14.3229 58.6386 14.1809C58.5259 14.039 58.3862 13.9207 58.2276 13.8329C58.069 13.7451 57.8946 13.6895 57.7145 13.6694C57.5343 13.6492 57.3519 13.6649 57.1779 13.7156L52.8886 14.9334L50.984 8.22554L116.534 44.7832Z" fill="white"/>
<path d="M74.2975 33.22C74.0837 33.3883 73.9248 33.6165 73.8412 33.8754C73.7575 34.1344 73.7529 34.4124 73.828 34.674L85.5129 75.8272C85.5871 76.0888 85.7373 76.3225 85.9444 76.4988C86.1515 76.6751 86.4062 76.786 86.6763 76.8174C86.9464 76.8489 87.2198 76.7996 87.4619 76.6757C87.704 76.5518 87.9039 76.3589 88.0363 76.1214L102.77 49.7021C102.859 49.5445 102.915 49.371 102.936 49.1916C102.957 49.0122 102.942 48.8305 102.893 48.6567C102.843 48.483 102.76 48.3207 102.648 48.1791C102.536 48.0375 102.397 47.9194 102.239 47.8315L75.8203 33.0975C75.5829 32.9649 75.3114 32.9057 75.0403 32.9275C74.7692 32.9493 74.5107 33.0511 74.2975 33.22ZM99.699 49.5636L87.2514 71.883L77.3798 37.116L99.699 49.5636Z" fill="white"/>
<path d="M60.2143 94.1284L46.2493 44.9447L46.7974 44.7891C46.9721 44.7406 47.1355 44.6581 47.2782 44.5463C47.4209 44.4345 47.5401 44.2956 47.6288 44.1376C47.7176 43.9795 47.7743 43.8055 47.7956 43.6255C47.8168 43.4454 47.8023 43.263 47.7528 43.0886C47.7033 42.9142 47.6197 42.7513 47.507 42.6094C47.3943 42.4674 47.2547 42.3491 47.0961 42.2613C46.9375 42.1735 46.7631 42.1179 46.5829 42.0978C46.4028 42.0777 46.2204 42.0934 46.0463 42.144L45.4983 42.2996L44.1248 37.4623L44.6729 37.3066C44.8476 37.2582 45.011 37.1757 45.1537 37.0639C45.2964 36.9521 45.4155 36.8132 45.5043 36.6552C45.5931 36.4971 45.6498 36.3231 45.671 36.143C45.6923 35.963 45.6778 35.7806 45.6282 35.6062C45.5787 35.4318 45.4952 35.2689 45.3825 35.127C45.2698 34.985 45.1301 34.8667 44.9715 34.7789C44.8129 34.6911 44.6385 34.6355 44.4584 34.6154C44.2782 34.5953 44.0959 34.611 43.9218 34.6616L43.3737 34.8172L41.7524 29.1067C41.2293 27.2685 39.9978 25.7133 38.3284 24.7829C36.6591 23.8526 34.6886 23.6231 32.8502 24.1452C31.0117 24.6672 29.4558 25.8979 28.5245 27.5667C27.5932 29.2356 27.3627 31.2059 27.8836 33.0446L29.505 38.7551L28.957 38.9107C28.6083 39.0121 28.3138 39.2473 28.138 39.5651C27.9621 39.8828 27.9191 40.2571 28.0183 40.6065C28.1175 40.9558 28.3508 41.2517 28.6674 41.4295C28.984 41.6074 29.3581 41.6528 29.708 41.5558L30.2561 41.4002L31.6296 46.2375L31.0815 46.3931C30.7328 46.4945 30.4384 46.7298 30.2625 47.0475C30.0866 47.3652 30.0436 47.7396 30.1428 48.0889C30.242 48.4382 30.4753 48.7341 30.7919 48.912C31.1085 49.0898 31.4826 49.1352 31.8326 49.0382L32.3807 48.8826L46.3457 98.0663C46.4236 98.2635 46.5271 98.4495 46.6538 98.6194L55.4518 108.248C55.5987 108.409 55.7817 108.532 55.9858 108.609C56.1899 108.685 56.4092 108.712 56.6256 108.687C56.842 108.661 57.0493 108.585 57.2305 108.464C57.4117 108.343 57.5616 108.181 57.6677 107.991C57.74 107.862 57.7906 107.722 57.8174 107.576L60.243 94.7609C60.2571 94.5497 60.2475 94.3375 60.2143 94.1284ZM30.5288 32.2936C30.2456 31.1588 30.4044 29.9588 30.973 28.9367C31.5416 27.9146 32.4774 27.1469 33.5909 26.7891C34.7294 26.4655 35.9497 26.6069 36.9839 27.1823C38.0181 27.7576 38.7818 28.7199 39.1072 29.8578L40.7286 35.5682L32.1502 38.004L30.5288 32.2936ZM32.9012 40.6492L41.4797 38.2133L42.8532 43.0506L34.2747 45.4864L32.9012 40.6492ZM43.6042 45.6958L56.8318 92.2824C55.314 91.9632 53.7411 92.0218 52.2513 92.4533C50.7532 92.8694 49.3804 93.6473 48.2535 94.7184L35.0258 48.1316L43.6042 45.6958ZM52.9458 101.427C53.9809 100.809 55.1599 100.475 56.365 100.456L55.626 104.36L52.9458 101.427ZM56.8836 97.7165C54.8172 97.6297 52.7775 98.2088 51.0652 99.3687L49.4 97.5466C50.2983 96.356 51.5647 95.4954 53.0024 95.0984C54.4309 94.6832 55.9566 94.751 57.3427 95.2913L56.8836 97.7165Z" fill="white"/>
</svg>
