<svg width="17" height="19" viewBox="0 0 17 19" fill="none" xmlns="http://www.w3.org/2000/svg">
<g clip-path="url(#clip0_49_558)">
<path d="M8.19033 5.14946C5.9189 5.14946 4.08676 6.95298 4.08676 9.18891C4.08676 11.4248 5.9189 13.2284 8.19033 13.2284C10.4618 13.2284 12.2939 11.4248 12.2939 9.18891C12.2939 6.95298 10.4618 5.14946 8.19033 5.14946ZM8.19033 11.8151C6.72247 11.8151 5.52247 10.6373 5.52247 9.18891C5.52247 7.74048 6.7189 6.56274 8.19033 6.56274C9.66175 6.56274 10.8582 7.74048 10.8582 9.18891C10.8582 10.6373 9.65818 11.8151 8.19033 11.8151ZM13.4189 4.98423C13.4189 5.50805 12.9903 5.92641 12.4618 5.92641C11.9296 5.92641 11.5046 5.50454 11.5046 4.98423C11.5046 4.46391 11.9332 4.04204 12.4618 4.04204C12.9903 4.04204 13.4189 4.46391 13.4189 4.98423ZM16.1368 5.94048C16.076 4.67837 15.7832 3.5604 14.8439 2.63931C13.9082 1.71821 12.7725 1.42993 11.4903 1.36665C10.1689 1.29282 6.20819 1.29282 4.88676 1.36665C3.60819 1.42642 2.47247 1.7147 1.53319 2.63579C0.593903 3.55688 0.304618 4.67485 0.240332 5.93696C0.165332 7.23774 0.165332 11.1366 0.240332 12.4373C0.301046 13.6995 0.593903 14.8174 1.53319 15.7385C2.47247 16.6596 3.60462 16.9479 4.88676 17.0112C6.20819 17.085 10.1689 17.085 11.4903 17.0112C12.7725 16.9514 13.9082 16.6631 14.8439 15.7385C15.7796 14.8174 16.0725 13.6995 16.1368 12.4373C16.2118 11.1366 16.2118 7.24126 16.1368 5.94048ZM14.4296 13.833C14.151 14.5221 13.6118 15.053 12.9082 15.3307C11.8546 15.742 9.35461 15.6471 8.19033 15.6471C7.02604 15.6471 4.52247 15.7385 3.47247 15.3307C2.77247 15.0565 2.23319 14.5256 1.95105 13.833C1.53319 12.7959 1.62962 10.335 1.62962 9.18891C1.62962 8.04282 1.53676 5.57837 1.95105 4.54477C2.22962 3.85571 2.7689 3.32485 3.47247 3.04712C4.52604 2.63579 7.02604 2.73071 8.19033 2.73071C9.35461 2.73071 11.8582 2.63931 12.9082 3.04712C13.6082 3.32134 14.1475 3.8522 14.4296 4.54477C14.8475 5.58188 14.751 8.04282 14.751 9.18891C14.751 10.335 14.8475 12.7995 14.4296 13.833Z" fill="white"/>
</g>
<defs>
<clipPath id="clip0_49_558">
<rect width="16" height="18" fill="white" transform="translate(0.186768 0.192383)"/>
</clipPath>
</defs>
</svg>
