<svg width="17" height="16" viewBox="0 0 17 16" fill="none" xmlns="http://www.w3.org/2000/svg">
<g clip-path="url(#clip0_49_562)">
<path d="M3.81946 15.1924V5.07191H0.389154V15.1924H3.81946ZM2.10475 3.6893C3.30096 3.6893 4.04554 2.91217 4.04554 1.94101C4.02325 0.947948 3.301 0.192383 2.12745 0.192383C0.954079 0.192383 0.186768 0.947963 0.186768 1.94101C0.186768 2.91221 0.931165 3.6893 2.08235 3.6893H2.10464H2.10475ZM5.71812 15.1924H9.14842V9.54062C9.14842 9.23815 9.17071 8.93599 9.26129 8.71976C9.50928 8.11543 10.0737 7.48951 11.0213 7.48951C12.2626 7.48951 12.7592 8.41759 12.7592 9.77809V15.1923H16.1892V9.38933C16.1892 6.28072 14.4969 4.83431 12.24 4.83431C10.3895 4.83431 9.57698 5.84864 9.1256 6.5395H9.1485V5.0717H5.71819C5.76321 6.02135 5.71819 15.1922 5.71819 15.1922L5.71812 15.1924Z" fill="white"/>
</g>
<defs>
<clipPath id="clip0_49_562">
<rect width="16" height="15" fill="white" transform="translate(0.186768 0.192383)"/>
</clipPath>
</defs>
</svg>
