<svg width="25" height="25" viewBox="0 0 25 25" fill="none" xmlns="http://www.w3.org/2000/svg">
<path d="M4.83065 4.99243H20.7306C22.2306 4.99243 22.9866 5.70043 22.9866 7.14043V17.2444C22.9866 18.6724 22.2306 19.3924 20.7306 19.3924H4.83065C3.33065 19.3924 2.57465 18.6724 2.57465 17.2444V7.14043C2.57465 5.70043 3.33065 4.99243 4.83065 4.99243ZM12.7746 15.3124L20.8626 8.67643C21.1506 8.43643 21.3786 7.88443 21.0186 7.39243C20.6706 6.90043 20.0346 6.88843 19.6146 7.18843L12.7746 11.8204L5.94665 7.18843C5.52665 6.88843 4.89065 6.90043 4.54265 7.39243C4.18265 7.88443 4.41065 8.43643 4.69865 8.67643L12.7746 15.3124Z" fill="white"/>
</svg>
