<svg width="22" height="25" viewBox="0 0 22 25" fill="none" xmlns="http://www.w3.org/2000/svg">
<g clip-path="url(#clip0_49_545)">
<path d="M10.0653 21.7174C8.37705 19.335 4.62213 13.5607 4.62213 10.3174C4.62213 6.3823 7.40226 3.19238 10.8318 3.19238C14.2601 3.19238 17.0415 6.3823 17.0415 10.3174C17.0415 13.5607 13.2575 19.335 11.5983 21.7174C11.2005 22.2852 10.4631 22.2852 10.0653 21.7174ZM10.8318 12.6924C11.9735 12.6924 12.9017 11.6273 12.9017 10.3174C12.9017 9.00742 11.9735 7.94238 10.8318 7.94238C9.69013 7.94238 8.76192 9.00742 8.76192 10.3174C8.76192 11.6273 9.69013 12.6924 10.8318 12.6924Z" fill="white"/>
</g>
<defs>
<clipPath id="clip0_49_545">
<rect width="12.4194" height="19" fill="white" transform="translate(4.62213 3.19238)"/>
</clipPath>
</defs>
</svg>
