<svg width="25" height="25" viewBox="0 0 25 25" fill="none" xmlns="http://www.w3.org/2000/svg">
<path d="M3.4304 5.5877L5.92649 3.09395C6.10257 2.91709 6.31185 2.77677 6.54232 2.68105C6.77279 2.58532 7.0199 2.53607 7.26946 2.53613C7.77805 2.53613 8.25618 2.73535 8.61477 3.09395L11.3007 5.77988C11.4776 5.95596 11.6179 6.16524 11.7136 6.39571C11.8093 6.62618 11.8586 6.87329 11.8585 7.12285C11.8585 7.63145 11.6593 8.10957 11.3007 8.46816L9.33665 10.4322C9.79639 11.4456 10.4356 12.3674 11.2234 13.1533C12.0092 13.943 12.931 14.5845 13.9445 15.0471L15.9085 13.083C16.0846 12.9062 16.2939 12.7658 16.5243 12.6701C16.7548 12.5744 17.0019 12.5251 17.2515 12.5252C17.7601 12.5252 18.2382 12.7244 18.5968 13.083L21.2851 15.7666C21.4621 15.943 21.6026 16.1527 21.6983 16.3836C21.7941 16.6144 21.8432 16.862 21.8429 17.1119C21.8429 17.6205 21.6437 18.0986 21.2851 18.4572L18.7937 20.9486C18.2218 21.5229 17.432 21.8486 16.621 21.8486C16.4499 21.8486 16.2859 21.8346 16.1241 21.8064C12.9648 21.2861 9.83117 19.6057 7.30227 17.0791C4.77571 14.5549 3.09758 11.4236 2.57024 8.25488C2.41086 7.28691 2.73196 6.29082 3.4304 5.5877Z" fill="white"/>
</svg>
