<svg width="19" height="15" viewBox="0 0 19 15" fill="none" xmlns="http://www.w3.org/2000/svg">
<g clip-path="url(#clip0_49_566)">
<path d="M18.1865 1.89728C17.5125 2.18175 16.7975 2.36848 16.0654 2.45125C16.828 2.01585 17.4135 1.32636 17.6892 0.50485C16.9643 0.914658 16.1712 1.20339 15.3442 1.35858C14.6705 0.67486 13.7108 0.247559 12.6486 0.247559C10.6091 0.247559 8.95559 1.82279 8.95559 3.76564C8.95559 4.04142 8.98828 4.3099 9.05121 4.56746C5.98207 4.4207 3.26098 3.02009 1.43953 0.891558C1.12172 1.41117 0.93961 2.01558 0.93961 2.66025C0.93961 3.88086 1.59162 4.95765 2.58246 5.58859C1.99602 5.57109 1.42248 5.42019 0.909727 5.14849C0.909516 5.16323 0.909516 5.17797 0.909516 5.19277C0.909516 6.89736 2.18245 8.31933 3.87178 8.64253C3.32798 8.78343 2.75756 8.80405 2.20411 8.70282C2.67401 10.1005 4.03786 11.1176 5.65378 11.1461C4.38991 12.0897 2.79755 12.6522 1.06744 12.6522C0.769313 12.6522 0.475407 12.6355 0.186493 12.603C1.82077 13.6012 3.76188 14.1836 5.84735 14.1836C12.64 14.1836 16.3544 8.82272 16.3544 4.17365C16.3544 4.02106 16.3509 3.86934 16.3437 3.71849C17.0667 3.22057 17.6907 2.60385 18.1865 1.89728Z" fill="white"/>
</g>
<defs>
<clipPath id="clip0_49_566">
<rect width="18" height="14" fill="white" transform="translate(0.186493 0.192383)"/>
</clipPath>
</defs>
</svg>
