<svg width="50" height="50" viewBox="0 0 50 50" fill="none" xmlns="http://www.w3.org/2000/svg">
<path d="M48 39.7424C48 40.5524 47.8197 41.3849 47.4367 42.1949C47.0536 43.0049 46.5578 43.7699 45.9044 44.4899C44.8002 45.7049 43.5834 46.5824 42.2088 47.1449C40.8568 47.7074 39.3921 47.9999 37.8147 47.9999C35.5163 47.9999 33.0601 47.4599 30.4687 46.3574C27.8773 45.2549 25.2859 43.7699 22.7171 41.9024C20.1257 40.0124 17.6695 37.9199 15.326 35.6024C13.005 33.2624 10.9094 30.8099 9.03906 28.2449C7.19129 25.6799 5.70406 23.1149 4.62243 20.5724C3.54081 18.0074 3 15.5549 3 13.2149C3 11.6849 3.27041 10.2224 3.81122 8.87244C4.35203 7.49994 5.20831 6.23994 6.4026 5.11494C7.84477 3.69744 9.42213 2.99994 11.0896 2.99994C11.7206 2.99994 12.3515 3.13494 12.9149 3.40494C13.5008 3.67494 14.019 4.07994 14.4246 4.66494L19.6525 12.0224C20.0581 12.5849 20.351 13.1024 20.5538 13.5974C20.7566 14.0699 20.8693 14.5424 20.8693 14.9699C20.8693 15.5099 20.7116 16.0499 20.3961 16.5674C20.1032 17.0849 19.675 17.6249 19.1342 18.1649L17.4216 19.9424C17.1738 20.1899 17.0611 20.4824 17.0611 20.8424C17.0611 21.0224 17.0836 21.1799 17.1287 21.3599C17.1963 21.5399 17.2639 21.6749 17.309 21.8099C17.7146 22.5524 18.4131 23.5199 19.4046 24.6899C20.4186 25.8599 21.5002 27.0524 22.672 28.2449C23.8888 29.4374 25.0606 30.5399 26.2549 31.5524C27.4266 32.5424 28.3956 33.2174 29.1617 33.6224C29.2744 33.6674 29.4096 33.7349 29.5674 33.8024C29.7476 33.8699 29.9279 33.8924 30.1307 33.8924C30.5138 33.8924 30.8067 33.7574 31.0546 33.5099L32.7672 31.8224C33.3305 31.2599 33.8713 30.8324 34.3896 30.5624C34.9079 30.2474 35.4261 30.0899 35.9895 30.0899C36.4176 30.0899 36.8683 30.1799 37.364 30.3824C37.8598 30.5849 38.3781 30.8774 38.9414 31.2599L46.4001 36.5474C46.986 36.9524 47.3916 37.4249 47.6395 37.9874C47.8648 38.5499 48 39.1124 48 39.7424Z" stroke="white" stroke-width="3" stroke-miterlimit="10"/>
</svg>
